# AST/ASF file generated using VICON BodyLanguage
# -----------------------------------------------
:version 1.10
:name VICON
:units
  mass 1.0
  length 0.45
  angle deg
:documentation
   .ast/.asf automatically generated from VICON data using
   VICON BodyBuilder and BodyLanguage model FoxedUp or BRILLIANT.MOD
:root
   order TX TY TZ RX RY RZ
   axis XYZ
   position 0 0 0  
   orientation 0 0 0 
:bonedata
  begin
     id 1 
     name lhipjoint
     direction 0.606768 -0.715223 0.346827 
     length 2.41543 
     axis 0 0 0  XYZ
  end
  begin
     id 2 
     name lfemur
     direction 0.34202 -0.939693 0  
     length 7.2778  
     axis 0 0 20  XYZ
    dof rx ry rz
    limits (-160.0 20.0)
           (-70.0 70.0)
           (-60.0 70.0)
  end
  begin
     id 3 
     name ltibia
     direction 0.34202 -0.939693 0   
     length 7.61811   
     axis 0 0 20   XYZ
    dof rx
    limits (-10.0 170.0)
  end
  begin
     id 4 
     name lfoot
     direction 0.0823924 -0.226371 0.97055   
     length 2.33618   
     axis -90 7.62852e-016 20   XYZ
    dof rx rz
    limits (-45.0 90.0)
           (-70.0 20.0)
  end
  begin
     id 5 
     name ltoes
     direction 1.53554e-011 -4.21934e-011 1   
     length 1.17015   
     axis -90 7.62852e-016 20   XYZ
    dof rx
    limits (-90.0 20.0)
  end
  begin
     id 6 
     name rhipjoint
     direction -0.6077 -0.714582 0.346516   
     length 2.4176  
     axis 0 0 0  XYZ 
  end
  begin
     id 7 
     name rfemur
     direction -0.34202 -0.939693 0   
     length 7.28127   
     axis 0 0 -20   XYZ
    dof rx ry rz
    limits (-160.0 20.0)
           (-70.0 70.0)
           (-70.0 60.0)
  end
  begin
     id 8 
     name rtibia
     direction -0.34202 -0.939693 0   
     length 7.77648   
     axis 0 0 -20   XYZ
    dof rx
    limits (-10.0 170.0)
 end
 begin
     id 9 
     name rfoot
     direction -0.0809463 -0.222398 0.97159   
     length 2.37533  
     axis -90 -7.62852e-016 -20   XYZ
    dof rx rz
    limits (-45.0 90.0)
           (-20.0 70.0)
  end
  begin
     id 10 
     name rtoes
     direction -1.53568e-011 -4.21714e-011 1   
     length 1.18972   
     axis -90 -7.62852e-016 -20   XYZ
    dof rx
    limits (-90.0 20.0)
  end
  begin
     id 11 
     name lowerback
     direction 0.010968 0.991932 -0.126297   
     length 2.21698   
     axis 0 0 0   XYZ
    dof rx ry rz
    limits (-20.0 45.0)
           (-30.0 30.0)
           (-30.0 30.0)
  end
  begin
     id 12 
     name upperback
     direction 0.0167007 0.997503 -0.0686276   
     length 2.22371   
     axis 0 0 0   XYZ
    dof rx ry rz
    limits (-20.0 45.0)
           (-30.0 30.0)
           (-30.0 30.0)
  end
  begin
     id 13 
     name thorax
     direction 0.0111721 0.999885 -0.0102878   
     length 2.25242   
     axis 0 0 0   XYZ
    dof rx ry rz
    limits (-20.0 45.0)
           (-30.0 30.0)
           (-30.0 30.0)
  end
  begin
     id 14 
     name lowerneck
     direction -0.0120265 0.990428 0.137508   
     length 1.57674   
     axis 0 0 0   XYZ
    dof rx ry rz
    limits (-20.0 45.0)
           (-30.0 30.0)
           (-30.0 30.0)
  end
  begin
     id 15 
     name upperneck
     direction 0.0175669 0.998907 0.0433089   
     length 1.5618   
     axis 0 0 0   XYZ
    dof rx ry rz
    limits (-20.0 45.0)
           (-30.0 30.0)
           (-30.0 30.0)
  end
  begin
     id 16
     name head
     direction 0.00754609 0.99997 0.00185367  
     length 1.60579  
     axis 0 0 0   XYZ
    dof rx ry rz
    limits (-20.0 45.0)
           (-30.0 30.0)
           (-30.0 30.0)
  end
  begin
     id 17 
     name lclavicle
     direction 0.885866 0.429166 -0.176231  
     length 3.44967  
     axis 0 0 0   XYZ
    dof ry rz
    limits (-20.0 10.0)
           (0.0 20.0)
  end
  begin
     id 18 
     name lhumerus
     direction 1 -4.48973e-011 -1.90255e-027   
     length 5.20607   
     axis 180 -30 -90   XYZ
    dof rx ry rz
    limits (-60.0 90.0)
           (-90.0 90.0)
           (-90.0 90.0)
  end
  begin
     id 19
     name lradius
     direction 1 -4.48956e-011 9.87925e-027   
     length 3.39961   
     axis 180 -30 -90   XYZ
    dof rx
    limits (-10.0 170.0)
  end
  begin
     id 20
     name lwrist
     direction 1 -4.48985e-011 1.73247e-026   
     length 1.6998   
     axis -9.60847e-015 90 90   XYZ
    dof ry
    limits (-180.0 0.0)
 end
  begin
     id 21 
     name lhand
     direction 1 -4.48798e-011 3.46119e-026   
     length 0.519693   
     axis -2.21073e-014 90 90   XYZ
    dof rx rz
    limits (-90.0 90.0)
           (-45.0 45.0)
  end
  begin
     id 22 
     name lfingers
     direction 1 -4.48938e-011 6.92797e-026   
     length 0.41899   
     axis -4.42155e-014 90 90   XYZ
    dof rx
    limits (0.0 90.0)
  end
  begin
     id 23
     name lthumb
     direction 0.707107 -6.34952e-011 0.707107   
     length 0.601588   
     axis -90 45 6.0103e-014   XYZ
    dof rx rz
    limits (-45.0 45.0)
           (-45.0 45.0)
  end
  begin
     id 24 
     name rclavicle
     direction -0.866736 0.456792 -0.200276   
     length 3.45032  
     axis 0 0 0   XYZ 
    dof ry rz
    limits (-10.0 20.0)
           (-20.0 0.0)
  end
  begin
     id 25 
     name rhumerus
     direction -1 -4.4897e-011 8.65094e-028  
     length 5.32214   
     axis 180 30 90   XYZ
    dof rx ry rz
    limits (-90.0 60.0)
           (-90.0 90.0)
           (-90.0 90.0)
  end
  begin
     id 26 
     name rradius
     direction -1 -4.48987e-011 1.08427e-026   
     length 3.51208   
     axis 180 30 90   XYZ
    dof rx
    limits (-10.0 170.0)
  end
  begin
     id 27 
     name rwrist
     direction -1 -4.48961e-011 1.73222e-026   
     length 1.75604   
     axis -9.60847e-015 -90 -90   XYZ
    dof ry
    limits (-180.0 0.0)
  end
  begin
     id 28
     name rhand
     direction -1 -4.48895e-011 3.46314e-026   
     length 0.586681   
     axis -2.21073e-014 -90 -90   XYZ
    dof rx rz
    limits (-90.0 90.0)
           (-45.0 45.0)
  end
  begin
     id 29
     name rfingers
     direction -1 -4.48968e-011 6.92916e-026   
     length 0.472997   
     axis -4.42155e-014 -90 -90   XYZ
    dof rx
    limits (0.0 90.0)
  end
  begin
     id 30
     name rthumb
     direction -0.707107 -6.34848e-011 0.707107   
     length 0.679133   
     axis -90 -45 -6.0103e-014   XYZ
    dof rx rz
    limits (-45.0 45.0)
           (-45.0 45.0)
  end
:hierarchy
  begin
    root lhipjoint rhipjoint lowerback
    lhipjoint lfemur
    lfemur ltibia
    ltibia lfoot
    lfoot ltoes
    rhipjoint rfemur
    rfemur rtibia
    rtibia rfoot
    rfoot rtoes
    lowerback upperback
    upperback thorax
    thorax lowerneck lclavicle rclavicle
    lowerneck upperneck
    upperneck head
    lclavicle lhumerus
    lhumerus lradius
    lradius lwrist
    lwrist lhand lthumb
    lhand lfingers
    rclavicle rhumerus
    rhumerus rradius
    rradius rwrist
    rwrist rhand rthumb
    rhand rfingers
  end

#!OML:ASF H:\Dans Jumps\Project 1\Capture day 1\Session 1\subject.ASF
:FULLY-SPECIFIED
:DEGREES
62
root 0.390527 17.528 -14.3245 6.72899 -0.317121 -1.56416
lowerback -1.7719 -0.653822 0.593713
upperback 5.07882 -0.997614 1.68174
thorax 6.28471 -0.512154 1.34503
lowerneck -11.1328 0.553294 -2.34764
upperneck 36.3673 1.0125 1.13094
head 14.298 0.257954 1.03056
rclavicle -2.38542e-015 -3.97569e-015
rhumerus -19.1123 -17.0816 -83.4863
rradius 25.9443
rwrist 31.5704
rhand -17.9719 -26.7617
rfingers 7.12502
rthumb 8.29746 -56.5787
lclavicle -2.38542e-015 -3.97569e-015
lhumerus -15.5991 0.0347792 88.3929
lradius 18.6749
lwrist -0.624492
lhand -23.5051 -3.35534
lfingers 7.12502
lthumb 2.95527 26.6039
rfemur -14.2552 -2.36512 19.0159
rtibia 21.4565
rfoot -13.2448 -2.18056
rtoes 5.39303
lfemur -13.7932 8.213 -17.4473
ltibia 18.9522
lfoot -10.6781 4.66068
ltoes -14.5966
63
root 0.394788 17.5279 -14.324 6.73236 -0.347988 -1.57272
lowerback -1.77119 -0.638829 0.601446
upperback 5.07508 -0.977929 1.68295
thorax 6.27982 -0.50206 1.34339
lowerneck -11.1273 0.552503 -2.33899
upperneck 36.3945 1.00924 1.13042
head 14.3095 0.257419 1.02864
rclavicle 1.60022e-014 -2.52457e-014
rhumerus -19.1106 -17.1624 -83.4573
rradius 25.8752
rwrist 31.669
rhand -17.9481 -26.7693
rfingers 7.12502
rthumb 8.32046 -56.5854
lclavicle 1.60022e-014 -2.52457e-014
lhumerus -15.5928 0.17214 88.3504
lradius 18.5807
lwrist -0.766382
lhand -23.5185 -3.35278
lfingers 7.12502
lthumb 2.94234 26.6067
rfemur -14.2552 -2.3713 19.0099
rtibia 21.4417
rfoot -13.2336 -2.14967
rtoes 5.38988
lfemur -13.7962 8.21583 -17.4547
ltibia 18.9671
lfoot -10.695 4.74974
ltoes -14.8143
64
root 0.398947 17.5279 -14.3234 6.73471 -0.375807 -1.58359
lowerback -1.76947 -0.625461 0.610227
upperback 5.0718 -0.960547 1.68575
thorax 6.27489 -0.4931 1.34265
lowerneck -11.1225 0.55155 -2.32973
upperneck 36.4223 1.00721 1.12542
head 14.3215 0.256887 1.02498
rclavicle -1.65985e-014 2.32578e-014
rhumerus -19.1056 -17.243 -83.4245
rradius 25.8086
rwrist 31.7623
rhand -17.9289 -26.769
rfingers 7.12502
rthumb 8.33892 -56.5844
lclavicle -1.65985e-014 2.32578e-014
lhumerus -15.5894 0.304583 88.3111
lradius 18.494
lwrist -0.898376
lhand -23.5264 -3.33783
lfingers 7.12502
lthumb 2.93471 26.6217
rfemur -14.2536 -2.37528 19.0068
rtibia 21.4266
rfoot -13.2214 -2.12408
rtoes 5.37339
lfemur -13.7989 8.21485 -17.4588
ltibia 18.9821
lfoot -10.7058 4.82965
ltoes -14.9872
65
root 0.403031 17.5279 -14.3228 6.7361 -0.400612 -1.59207
lowerback -1.76985 -0.613839 0.616893
upperback 5.07072 -0.945428 1.68766
thorax 6.27358 -0.485346 1.34199
lowerneck -11.119 0.550225 -2.31973
upperneck 36.4484 1.00564 1.11713
head 14.3331 0.256229 1.01989
rclavicle -4.27387e-015 6.16232e-015
rhumerus -19.0965 -17.32 -83.3912
rradius 25.7479
rwrist 31.8478
rhand -17.913 -26.7653
rfingers 7.12502
rthumb 8.35434 -56.5801
lclavicle -4.27387e-015 6.16232e-015
lhumerus -15.5882 0.436359 88.2728
lradius 18.413
lwrist -1.02776
lhand -23.5392 -3.34303
lfingers 7.12502
lthumb 2.92238 26.6167
rfemur -14.2504 -2.37845 19.0012
rtibia 21.4123
rfoot -13.2092 -2.10201
rtoes 5.34809
lfemur -13.8006 8.21305 -17.4653
ltibia 18.997
lfoot -10.7124 4.89729
ltoes -15.1182
66
root 0.407076 17.5278 -14.322 6.7363 -0.424063 -1.60042
lowerback -1.77328 -0.604214 0.62319
upperback 5.07253 -0.933079 1.68961
thorax 6.27717 -0.478988 1.34136
lowerneck -11.1164 0.549224 -2.31042
upperneck 36.4721 1.00534 1.10709
head 14.3437 0.255795 1.01438
rclavicle 4.27387e-015 -1.45113e-014
rhumerus -19.0817 -17.3926 -83.3576
rradius 25.6898
rwrist 31.9301
rhand -17.9018 -26.7591
rfingers 7.12502
rthumb 8.36515 -56.5734
lclavicle 4.27387e-015 -1.45113e-014
lhumerus -15.5878 0.563797 88.2347
lradius 18.3368
lwrist -1.14592
lhand -23.5506 -3.37417
lfingers 7.12502
lthumb 2.91133 26.5857
rfemur -14.2455 -2.38038 18.9955
rtibia 21.399
rfoot -13.1981 -2.0826
rtoes 5.31331
lfemur -13.8015 8.21412 -17.4719
ltibia 19.0125
lfoot -10.7164 4.95039
ltoes -15.2044
67
root 0.411065 17.5277 -14.3211 6.73509 -0.443782 -1.60805
lowerback -1.77849 -0.596722 0.628964
upperback 5.07603 -0.923581 1.69085
thorax 6.28363 -0.47405 1.34005
lowerneck -11.1103 0.547719 -2.30225
upperneck 36.4888 1.00395 1.09832
head 14.3504 0.254975 1.00929
rclavicle -1.40143e-014 1.39149e-014
rhumerus -19.0653 -17.46 -83.3238
rradius 25.6372
rwrist 32.0068
rhand -17.8987 -26.7456
rfingers 7.12502
rthumb 8.36809 -56.5598
lclavicle -1.40143e-014 1.39149e-014
lhumerus -15.5888 0.684457 88.1971
lradius 18.2659
lwrist -1.24634
lhand -23.5518 -3.42273
lfingers 7.12502
lthumb 2.91019 26.5372
rfemur -14.2379 -2.38223 18.9891
rtibia 21.3867
rfoot -13.1882 -2.06671
rtoes 5.28768
lfemur -13.801 8.21871 -17.4789
ltibia 19.0287
lfoot -10.7198 4.988
ltoes -15.2476
